<?xml version="1.0" encoding="utf-8"?>
<!-- Generator: Adobe Illustrator 16.0.0, SVG Export Plug-In . SVG Version: 6.00 Build 0)  -->
<!DOCTYPE svg PUBLIC "-//W3C//DTD SVG 1.1//EN" "http://www.w3.org/Graphics/SVG/1.1/DTD/svg11.dtd">
<svg version="1.1" id="Layer_1" xmlns="http://www.w3.org/2000/svg" xmlns:xlink="http://www.w3.org/1999/xlink" x="0px" y="0px"
	 width="600px" height="600px" viewBox="0 0 600 600" enable-background="new 0 0 600 600" xml:space="preserve">
<path d="M472.391,487.253c-42.329,35.912-95.969,53.881-161.018,53.881c-64.49,0-121.083-23.533-169.736-70.551
	c-48.641-47.067-72.932-104.17-72.932-171.347c0-23.432,3.146-45.59,9.073-66.634c-11.175-7.304-22.941-13.652-34.537-20.274
	c-8.749,27.157-13.41,56.046-13.41,86.908c0,77.721,28.01,144.095,84.043,199.108C170.469,552.799,238.688,580,318.505,580
	c67.188,0,126.89-20.07,179.254-60.261c4.229-3.158,8.355-6.966,8.355-6.966v-58.745
	C506.114,454.028,477.129,484.044,472.391,487.253z"/>
<path d="M497.759,77.944c-52.875-40.701-112.626-61.076-179.254-61.076c-79.816,0.56-148.036,28.322-204.63,83.285
	c-22.967,22.324-40.777,46.839-54.295,73.174c4.865,2.502,9.621,5.208,14.104,7.991c5.947,3.693,11.767,8.048,17.797,11.945
	c0.439,0.185,0.885,0.337,1.318,0.535c11.907-23.973,27.997-46.259,48.837-66.642c48.653-47.634,107.59-71.423,176.868-71.423
	c57.663,0,109.469,17.982,155.465,53.951c3.72,3.152,32.145,28.673,32.145,28.673V85.636
	C506.114,85.636,501.988,81.663,497.759,77.944z"/>
<path d="M585.018,187.412v-24.241L344.942,309.545v24.209L585.018,187.412z M376.474,297.562h129.689v66.679H376.474V297.562z"/>
<path d="M227.47,297.562H97.836v66.679H227.47V297.562z M87.635,203.388l-68.653-41.86v24.235l242.98,148.08v-24.195L87.635,203.388
	"/>
</svg>
