<?xml version="1.0" encoding="utf-8"?>
<!-- Generator: Adobe Illustrator 16.0.0, SVG Export Plug-In . SVG Version: 6.00 Build 0)  -->
<!DOCTYPE svg PUBLIC "-//W3C//DTD SVG 1.1//EN" "http://www.w3.org/Graphics/SVG/1.1/DTD/svg11.dtd">
<svg version="1.1" id="Layer_1" xmlns="http://www.w3.org/2000/svg" xmlns:xlink="http://www.w3.org/1999/xlink" x="0px" y="0px"
	 width="673.282px" height="171.264px" viewBox="0 0 673.282 171.264" enable-background="new 0 0 673.282 171.264"
	 xml:space="preserve">
<path d="M285.507,139.173v-91h56.658v21.45h-29.229v13.26h27.432v21.45h-27.432v13.391h31.331v21.449H285.507z M213.768,139.173v-91
	h56.659v21.45h-29.229v13.26h27.43v21.45h-27.43v13.391h31.33v21.449H213.768z M142.03,139.173v-91h56.659v21.45H169.46v13.26h27.43
	v21.45h-27.43v13.391h31.33v21.449H142.03z M96.704,139.173v-91h27.43v91H96.704z"/>
<path d="M662.282,134.183c-7.365,3.033-15.035,4.55-23.055,4.55c-12.436,0-22.574-4.183-30.42-12.545
	c-7.863-8.341-11.785-19.262-11.785-32.716c0-14.756,4.246-26.585,12.762-35.49c8.516-8.903,19.326-13.367,32.436-13.367
	c6.979,0,13.672,1.127,20.064,3.357v6.673c-6.395-2.881-13.107-4.313-20.172-4.313c-11.418,0-20.713,3.878-27.863,11.612
	c-7.148,7.758-10.725,18.07-10.725,30.939c0,12.394,3.424,22.188,10.248,29.357c6.822,7.172,15.49,10.77,25.979,10.77
	c8.385,0,15.883-1.625,22.533-4.896v6.067H662.282z M573.883,97.632c0-6.045-1.908-11.18-5.742-15.383
	c-3.836-4.204-8.971-6.306-15.447-6.306c-6.805,0-12.438,2.601-16.879,7.822s-6.652,12.415-6.652,21.536
	c0,8.971,1.994,15.882,6.002,20.778c3.986,4.875,9.145,7.322,15.449,7.322c7.389,0,13.129-2.297,17.182-6.891
	c4.051-4.571,6.088-10.161,6.088-16.771V97.632L573.883,97.632z M573.883,137.173v-11.83h-0.26
	c-2.105,4.117-5.244,7.367-9.383,9.772c-4.16,2.403-8.818,3.616-14.021,3.616c-7.994,0-14.537-2.925-19.586-8.753
	s-7.584-13.889-7.584-24.158c0-10.485,2.752-18.979,8.277-25.479c5.525-6.479,12.695-9.729,21.492-9.729
	c9.729,0,16.662,3.987,20.801,11.981h0.26V40.974h5.854v96.199H573.883L573.883,137.173z M484.442,104.802
	c-6.803,0.977-11.592,2.558-14.344,4.725c-2.752,2.188-4.139,5.721-4.139,10.616c0,3.856,1.279,7.021,3.836,9.513
	c2.578,2.491,6.131,3.748,10.703,3.748c6.283,0,11.482-2.317,15.643-6.935c4.141-4.637,6.221-10.615,6.221-17.918v-6.349
	L484.442,104.802z M502.362,137.173v-13.021H502.1c-2.059,4.44-5.068,7.975-9.035,10.617c-3.965,2.644-8.342,3.964-13.174,3.964
	c-6.174,0-11.049-1.731-14.645-5.198c-3.596-3.468-5.396-7.845-5.396-13.131c0-11.331,7.52-18.179,22.533-20.539l19.979-2.99
	c0-13.954-5.244-20.931-15.752-20.931c-7.174,0-14.127,2.883-20.908,8.646v-7.063c2.404-1.906,5.676-3.531,9.813-4.875
	c4.143-1.364,8.02-2.036,11.658-2.036c6.693,0,11.873,2.079,15.535,6.218c3.66,4.14,5.502,10.185,5.502,18.092v42.25
	L502.362,137.173L502.362,137.173z M438.163,137.173V98.087c0-8.168-1.279-13.888-3.836-17.204
	c-2.555-3.293-6.607-4.939-12.154-4.939c-5.113,0-9.533,2.21-13.26,6.607c-3.729,4.398-5.59,9.902-5.59,16.554v38.067h-5.852V97.652
	c0-14.473-5.504-21.71-16.51-21.71c-5.287,0-9.686,2.21-13.195,6.631c-3.51,4.42-5.266,10.14-5.266,17.16v37.438h-5.85v-65h5.85
	v10.813h0.262c4.527-8.255,11.137-12.372,19.867-12.372c4.746,0,8.797,1.365,12.156,4.096c3.355,2.729,5.633,6.305,6.824,10.747
	c2.037-4.681,4.938-8.342,8.729-10.942c3.791-2.6,7.887-3.899,12.354-3.899c14.213,0,21.316,8.798,21.316,26.391v40.17H438.163
	L438.163,137.173z"/>
<g>
	<path d="M77.911,25.33h-0.19V13.494c0-2.034-1.664-3.698-3.698-3.698h-0.92c-2.036,0-3.7,1.665-3.7,3.698V25.33H21.514
		c-4.449,0-8.09,3.641-8.09,8.09v100.122c0,4.449,3.641,8.091,8.09,8.091h56.397c4.449,0,8.09-3.642,8.09-8.091V33.421
		C86.001,28.971,82.36,25.33,77.911,25.33z M71.437,80.198H28.218V42.689h43.219V80.198z"/>
</g>
</svg>
